<?xml version="1.0" encoding="utf-8" standalone="no"?>
<!DOCTYPE svg PUBLIC "-//W3C//DTD SVG 1.1//EN"
  "http://www.w3.org/Graphics/SVG/1.1/DTD/svg11.dtd">
<svg xmlns:xlink="http://www.w3.org/1999/xlink" width="864pt" height="576pt" viewBox="0 0 864 576" xmlns="http://www.w3.org/2000/svg" version="1.1">
 <metadata>
  <rdf:RDF xmlns:dc="http://purl.org/dc/elements/1.1/" xmlns:cc="http://creativecommons.org/ns#" xmlns:rdf="http://www.w3.org/1999/02/22-rdf-syntax-ns#">
   <cc:Work>
    <dc:type rdf:resource="http://purl.org/dc/dcmitype/StillImage"/>
    <dc:date>2023-02-01T13:23:02.220671</dc:date>
    <dc:format>image/svg+xml</dc:format>
    <dc:creator>
     <cc:Agent>
      <dc:title>Matplotlib v3.6.2, https://matplotlib.org/</dc:title>
     </cc:Agent>
    </dc:creator>
   </cc:Work>
  </rdf:RDF>
 </metadata>
 <defs>
  <style type="text/css">*{stroke-linejoin: round; stroke-linecap: butt}</style>
 </defs>
 <g id="figure_1">
  <g id="patch_1">
   <path d="M 0 576 
L 864 576 
L 864 0 
L 0 0 
z
" style="fill: #ffffff"/>
  </g>
  <g id="axes_1">
   <g id="patch_2">
    <path d="M 73.77 504.84 
L 824 504.84 
L 824 56.08 
L 73.77 56.08 
z
" style="fill: #ffffff"/>
   </g>
   <g id="matplotlib.axis_1">
    <g id="xtick_1">
     <g id="line2d_1">
      <defs>
       <path id="me1abbb4af3" d="M 0 0 
L 0 3.5 
" style="stroke: #000000; stroke-width: 0.8"/>
      </defs>
      <g>
       <use xlink:href="#me1abbb4af3" x="105.971566" y="504.84" style="stroke: #000000; stroke-width: 0.8"/>
      </g>
     </g>
     <g id="text_1">
      <!-- 0 -->
      <g transform="translate(102.790316 519.438437) scale(0.1 -0.1)">
       <defs>
        <path id="DejaVuSans-30" d="M 2034 4250 
Q 1547 4250 1301 3770 
Q 1056 3291 1056 2328 
Q 1056 1369 1301 889 
Q 1547 409 2034 409 
Q 2525 409 2770 889 
Q 3016 1369 3016 2328 
Q 3016 3291 2770 3770 
Q 2525 4250 2034 4250 
z
M 2034 4750 
Q 2819 4750 3233 4129 
Q 3647 3509 3647 2328 
Q 3647 1150 3233 529 
Q 2819 -91 2034 -91 
Q 1250 -91 836 529 
Q 422 1150 422 2328 
Q 422 3509 836 4129 
Q 1250 4750 2034 4750 
z
" transform="scale(0.015625)"/>
       </defs>
       <use xlink:href="#DejaVuSans-30"/>
      </g>
     </g>
    </g>
    <g id="xtick_2">
     <g id="line2d_2">
      <g>
       <use xlink:href="#me1abbb4af3" x="200.961437" y="504.84" style="stroke: #000000; stroke-width: 0.8"/>
      </g>
     </g>
     <g id="text_2">
      <!-- 50 -->
      <g transform="translate(194.598937 519.438437) scale(0.1 -0.1)">
       <defs>
        <path id="DejaVuSans-35" d="M 691 4666 
L 3169 4666 
L 3169 4134 
L 1269 4134 
L 1269 2991 
Q 1406 3038 1543 3061 
Q 1681 3084 1819 3084 
Q 2600 3084 3056 2656 
Q 3513 2228 3513 1497 
Q 3513 744 3044 326 
Q 2575 -91 1722 -91 
Q 1428 -91 1123 -41 
Q 819 9 494 109 
L 494 744 
Q 775 591 1075 516 
Q 1375 441 1709 441 
Q 2250 441 2565 725 
Q 2881 1009 2881 1497 
Q 2881 1984 2565 2268 
Q 2250 2553 1709 2553 
Q 1456 2553 1204 2497 
Q 953 2441 691 2322 
L 691 4666 
z
" transform="scale(0.015625)"/>
       </defs>
       <use xlink:href="#DejaVuSans-35"/>
       <use xlink:href="#DejaVuSans-30" x="63.623047"/>
      </g>
     </g>
    </g>
    <g id="xtick_3">
     <g id="line2d_3">
      <g>
       <use xlink:href="#me1abbb4af3" x="295.951308" y="504.84" style="stroke: #000000; stroke-width: 0.8"/>
      </g>
     </g>
     <g id="text_3">
      <!-- 100 -->
      <g transform="translate(286.407558 519.438437) scale(0.1 -0.1)">
       <defs>
        <path id="DejaVuSans-31" d="M 794 531 
L 1825 531 
L 1825 4091 
L 703 3866 
L 703 4441 
L 1819 4666 
L 2450 4666 
L 2450 531 
L 3481 531 
L 3481 0 
L 794 0 
L 794 531 
z
" transform="scale(0.015625)"/>
       </defs>
       <use xlink:href="#DejaVuSans-31"/>
       <use xlink:href="#DejaVuSans-30" x="63.623047"/>
       <use xlink:href="#DejaVuSans-30" x="127.246094"/>
      </g>
     </g>
    </g>
    <g id="xtick_4">
     <g id="line2d_4">
      <g>
       <use xlink:href="#me1abbb4af3" x="390.941179" y="504.84" style="stroke: #000000; stroke-width: 0.8"/>
      </g>
     </g>
     <g id="text_4">
      <!-- 150 -->
      <g transform="translate(381.397429 519.438437) scale(0.1 -0.1)">
       <use xlink:href="#DejaVuSans-31"/>
       <use xlink:href="#DejaVuSans-35" x="63.623047"/>
       <use xlink:href="#DejaVuSans-30" x="127.246094"/>
      </g>
     </g>
    </g>
    <g id="xtick_5">
     <g id="line2d_5">
      <g>
       <use xlink:href="#me1abbb4af3" x="485.93105" y="504.84" style="stroke: #000000; stroke-width: 0.8"/>
      </g>
     </g>
     <g id="text_5">
      <!-- 200 -->
      <g transform="translate(476.3873 519.438437) scale(0.1 -0.1)">
       <defs>
        <path id="DejaVuSans-32" d="M 1228 531 
L 3431 531 
L 3431 0 
L 469 0 
L 469 531 
Q 828 903 1448 1529 
Q 2069 2156 2228 2338 
Q 2531 2678 2651 2914 
Q 2772 3150 2772 3378 
Q 2772 3750 2511 3984 
Q 2250 4219 1831 4219 
Q 1534 4219 1204 4116 
Q 875 4013 500 3803 
L 500 4441 
Q 881 4594 1212 4672 
Q 1544 4750 1819 4750 
Q 2544 4750 2975 4387 
Q 3406 4025 3406 3419 
Q 3406 3131 3298 2873 
Q 3191 2616 2906 2266 
Q 2828 2175 2409 1742 
Q 1991 1309 1228 531 
z
" transform="scale(0.015625)"/>
       </defs>
       <use xlink:href="#DejaVuSans-32"/>
       <use xlink:href="#DejaVuSans-30" x="63.623047"/>
       <use xlink:href="#DejaVuSans-30" x="127.246094"/>
      </g>
     </g>
    </g>
    <g id="xtick_6">
     <g id="line2d_6">
      <g>
       <use xlink:href="#me1abbb4af3" x="580.92092" y="504.84" style="stroke: #000000; stroke-width: 0.8"/>
      </g>
     </g>
     <g id="text_6">
      <!-- 250 -->
      <g transform="translate(571.37717 519.438437) scale(0.1 -0.1)">
       <use xlink:href="#DejaVuSans-32"/>
       <use xlink:href="#DejaVuSans-35" x="63.623047"/>
       <use xlink:href="#DejaVuSans-30" x="127.246094"/>
      </g>
     </g>
    </g>
    <g id="xtick_7">
     <g id="line2d_7">
      <g>
       <use xlink:href="#me1abbb4af3" x="675.910791" y="504.84" style="stroke: #000000; stroke-width: 0.8"/>
      </g>
     </g>
     <g id="text_7">
      <!-- 300 -->
      <g transform="translate(666.367041 519.438437) scale(0.1 -0.1)">
       <defs>
        <path id="DejaVuSans-33" d="M 2597 2516 
Q 3050 2419 3304 2112 
Q 3559 1806 3559 1356 
Q 3559 666 3084 287 
Q 2609 -91 1734 -91 
Q 1441 -91 1130 -33 
Q 819 25 488 141 
L 488 750 
Q 750 597 1062 519 
Q 1375 441 1716 441 
Q 2309 441 2620 675 
Q 2931 909 2931 1356 
Q 2931 1769 2642 2001 
Q 2353 2234 1838 2234 
L 1294 2234 
L 1294 2753 
L 1863 2753 
Q 2328 2753 2575 2939 
Q 2822 3125 2822 3475 
Q 2822 3834 2567 4026 
Q 2313 4219 1838 4219 
Q 1578 4219 1281 4162 
Q 984 4106 628 3988 
L 628 4550 
Q 988 4650 1302 4700 
Q 1616 4750 1894 4750 
Q 2613 4750 3031 4423 
Q 3450 4097 3450 3541 
Q 3450 3153 3228 2886 
Q 3006 2619 2597 2516 
z
" transform="scale(0.015625)"/>
       </defs>
       <use xlink:href="#DejaVuSans-33"/>
       <use xlink:href="#DejaVuSans-30" x="63.623047"/>
       <use xlink:href="#DejaVuSans-30" x="127.246094"/>
      </g>
     </g>
    </g>
    <g id="xtick_8">
     <g id="line2d_8">
      <g>
       <use xlink:href="#me1abbb4af3" x="770.900662" y="504.84" style="stroke: #000000; stroke-width: 0.8"/>
      </g>
     </g>
     <g id="text_8">
      <!-- 350 -->
      <g transform="translate(761.356912 519.438437) scale(0.1 -0.1)">
       <use xlink:href="#DejaVuSans-33"/>
       <use xlink:href="#DejaVuSans-35" x="63.623047"/>
       <use xlink:href="#DejaVuSans-30" x="127.246094"/>
      </g>
     </g>
    </g>
    <g id="text_9">
     <!-- Time (s) -->
     <g transform="translate(428.556094 533.116562) scale(0.1 -0.1)">
      <defs>
       <path id="DejaVuSans-54" d="M -19 4666 
L 3928 4666 
L 3928 4134 
L 2272 4134 
L 2272 0 
L 1638 0 
L 1638 4134 
L -19 4134 
L -19 4666 
z
" transform="scale(0.015625)"/>
       <path id="DejaVuSans-69" d="M 603 3500 
L 1178 3500 
L 1178 0 
L 603 0 
L 603 3500 
z
M 603 4863 
L 1178 4863 
L 1178 4134 
L 603 4134 
L 603 4863 
z
" transform="scale(0.015625)"/>
       <path id="DejaVuSans-6d" d="M 3328 2828 
Q 3544 3216 3844 3400 
Q 4144 3584 4550 3584 
Q 5097 3584 5394 3201 
Q 5691 2819 5691 2113 
L 5691 0 
L 5113 0 
L 5113 2094 
Q 5113 2597 4934 2840 
Q 4756 3084 4391 3084 
Q 3944 3084 3684 2787 
Q 3425 2491 3425 1978 
L 3425 0 
L 2847 0 
L 2847 2094 
Q 2847 2600 2669 2842 
Q 2491 3084 2119 3084 
Q 1678 3084 1418 2786 
Q 1159 2488 1159 1978 
L 1159 0 
L 581 0 
L 581 3500 
L 1159 3500 
L 1159 2956 
Q 1356 3278 1631 3431 
Q 1906 3584 2284 3584 
Q 2666 3584 2933 3390 
Q 3200 3197 3328 2828 
z
" transform="scale(0.015625)"/>
       <path id="DejaVuSans-65" d="M 3597 1894 
L 3597 1613 
L 953 1613 
Q 991 1019 1311 708 
Q 1631 397 2203 397 
Q 2534 397 2845 478 
Q 3156 559 3463 722 
L 3463 178 
Q 3153 47 2828 -22 
Q 2503 -91 2169 -91 
Q 1331 -91 842 396 
Q 353 884 353 1716 
Q 353 2575 817 3079 
Q 1281 3584 2069 3584 
Q 2775 3584 3186 3129 
Q 3597 2675 3597 1894 
z
M 3022 2063 
Q 3016 2534 2758 2815 
Q 2500 3097 2075 3097 
Q 1594 3097 1305 2825 
Q 1016 2553 972 2059 
L 3022 2063 
z
" transform="scale(0.015625)"/>
       <path id="DejaVuSans-20" transform="scale(0.015625)"/>
       <path id="DejaVuSans-28" d="M 1984 4856 
Q 1566 4138 1362 3434 
Q 1159 2731 1159 2009 
Q 1159 1288 1364 580 
Q 1569 -128 1984 -844 
L 1484 -844 
Q 1016 -109 783 600 
Q 550 1309 550 2009 
Q 550 2706 781 3412 
Q 1013 4119 1484 4856 
L 1984 4856 
z
" transform="scale(0.015625)"/>
       <path id="DejaVuSans-73" d="M 2834 3397 
L 2834 2853 
Q 2591 2978 2328 3040 
Q 2066 3103 1784 3103 
Q 1356 3103 1142 2972 
Q 928 2841 928 2578 
Q 928 2378 1081 2264 
Q 1234 2150 1697 2047 
L 1894 2003 
Q 2506 1872 2764 1633 
Q 3022 1394 3022 966 
Q 3022 478 2636 193 
Q 2250 -91 1575 -91 
Q 1294 -91 989 -36 
Q 684 19 347 128 
L 347 722 
Q 666 556 975 473 
Q 1284 391 1588 391 
Q 1994 391 2212 530 
Q 2431 669 2431 922 
Q 2431 1156 2273 1281 
Q 2116 1406 1581 1522 
L 1381 1569 
Q 847 1681 609 1914 
Q 372 2147 372 2553 
Q 372 3047 722 3315 
Q 1072 3584 1716 3584 
Q 2034 3584 2315 3537 
Q 2597 3491 2834 3397 
z
" transform="scale(0.015625)"/>
       <path id="DejaVuSans-29" d="M 513 4856 
L 1013 4856 
Q 1481 4119 1714 3412 
Q 1947 2706 1947 2009 
Q 1947 1309 1714 600 
Q 1481 -109 1013 -844 
L 513 -844 
Q 928 -128 1133 580 
Q 1338 1288 1338 2009 
Q 1338 2731 1133 3434 
Q 928 4138 513 4856 
z
" transform="scale(0.015625)"/>
      </defs>
      <use xlink:href="#DejaVuSans-54"/>
      <use xlink:href="#DejaVuSans-69" x="57.958984"/>
      <use xlink:href="#DejaVuSans-6d" x="85.742188"/>
      <use xlink:href="#DejaVuSans-65" x="183.154297"/>
      <use xlink:href="#DejaVuSans-20" x="244.677734"/>
      <use xlink:href="#DejaVuSans-28" x="276.464844"/>
      <use xlink:href="#DejaVuSans-73" x="315.478516"/>
      <use xlink:href="#DejaVuSans-29" x="367.578125"/>
     </g>
    </g>
   </g>
   <g id="matplotlib.axis_2">
    <g id="ytick_1">
     <g id="line2d_9">
      <defs>
       <path id="m14c75565be" d="M 0 0 
L -3.5 0 
" style="stroke: #000000; stroke-width: 0.8"/>
      </defs>
      <g>
       <use xlink:href="#m14c75565be" x="73.77" y="504.775567" style="stroke: #000000; stroke-width: 0.8"/>
      </g>
     </g>
     <g id="text_10">
      <!-- 30 -->
      <g transform="translate(54.045 508.574786) scale(0.1 -0.1)">
       <use xlink:href="#DejaVuSans-33"/>
       <use xlink:href="#DejaVuSans-30" x="63.623047"/>
      </g>
     </g>
    </g>
    <g id="ytick_2">
     <g id="line2d_10">
      <g>
       <use xlink:href="#m14c75565be" x="73.77" y="439.384703" style="stroke: #000000; stroke-width: 0.8"/>
      </g>
     </g>
     <g id="text_11">
      <!-- 40 -->
      <g transform="translate(54.045 443.183922) scale(0.1 -0.1)">
       <defs>
        <path id="DejaVuSans-34" d="M 2419 4116 
L 825 1625 
L 2419 1625 
L 2419 4116 
z
M 2253 4666 
L 3047 4666 
L 3047 1625 
L 3713 1625 
L 3713 1100 
L 3047 1100 
L 3047 0 
L 2419 0 
L 2419 1100 
L 313 1100 
L 313 1709 
L 2253 4666 
z
" transform="scale(0.015625)"/>
       </defs>
       <use xlink:href="#DejaVuSans-34"/>
       <use xlink:href="#DejaVuSans-30" x="63.623047"/>
      </g>
     </g>
    </g>
    <g id="ytick_3">
     <g id="line2d_11">
      <g>
       <use xlink:href="#m14c75565be" x="73.77" y="373.99384" style="stroke: #000000; stroke-width: 0.8"/>
      </g>
     </g>
     <g id="text_12">
      <!-- 50 -->
      <g transform="translate(54.045 377.793058) scale(0.1 -0.1)">
       <use xlink:href="#DejaVuSans-35"/>
       <use xlink:href="#DejaVuSans-30" x="63.623047"/>
      </g>
     </g>
    </g>
    <g id="ytick_4">
     <g id="line2d_12">
      <g>
       <use xlink:href="#m14c75565be" x="73.77" y="308.602976" style="stroke: #000000; stroke-width: 0.8"/>
      </g>
     </g>
     <g id="text_13">
      <!-- 60 -->
      <g transform="translate(54.045 312.402195) scale(0.1 -0.1)">
       <defs>
        <path id="DejaVuSans-36" d="M 2113 2584 
Q 1688 2584 1439 2293 
Q 1191 2003 1191 1497 
Q 1191 994 1439 701 
Q 1688 409 2113 409 
Q 2538 409 2786 701 
Q 3034 994 3034 1497 
Q 3034 2003 2786 2293 
Q 2538 2584 2113 2584 
z
M 3366 4563 
L 3366 3988 
Q 3128 4100 2886 4159 
Q 2644 4219 2406 4219 
Q 1781 4219 1451 3797 
Q 1122 3375 1075 2522 
Q 1259 2794 1537 2939 
Q 1816 3084 2150 3084 
Q 2853 3084 3261 2657 
Q 3669 2231 3669 1497 
Q 3669 778 3244 343 
Q 2819 -91 2113 -91 
Q 1303 -91 875 529 
Q 447 1150 447 2328 
Q 447 3434 972 4092 
Q 1497 4750 2381 4750 
Q 2619 4750 2861 4703 
Q 3103 4656 3366 4563 
z
" transform="scale(0.015625)"/>
       </defs>
       <use xlink:href="#DejaVuSans-36"/>
       <use xlink:href="#DejaVuSans-30" x="63.623047"/>
      </g>
     </g>
    </g>
    <g id="ytick_5">
     <g id="line2d_13">
      <g>
       <use xlink:href="#m14c75565be" x="73.77" y="243.212112" style="stroke: #000000; stroke-width: 0.8"/>
      </g>
     </g>
     <g id="text_14">
      <!-- 70 -->
      <g transform="translate(54.045 247.011331) scale(0.1 -0.1)">
       <defs>
        <path id="DejaVuSans-37" d="M 525 4666 
L 3525 4666 
L 3525 4397 
L 1831 0 
L 1172 0 
L 2766 4134 
L 525 4134 
L 525 4666 
z
" transform="scale(0.015625)"/>
       </defs>
       <use xlink:href="#DejaVuSans-37"/>
       <use xlink:href="#DejaVuSans-30" x="63.623047"/>
      </g>
     </g>
    </g>
    <g id="ytick_6">
     <g id="line2d_14">
      <g>
       <use xlink:href="#m14c75565be" x="73.77" y="177.821249" style="stroke: #000000; stroke-width: 0.8"/>
      </g>
     </g>
     <g id="text_15">
      <!-- 80 -->
      <g transform="translate(54.045 181.620468) scale(0.1 -0.1)">
       <defs>
        <path id="DejaVuSans-38" d="M 2034 2216 
Q 1584 2216 1326 1975 
Q 1069 1734 1069 1313 
Q 1069 891 1326 650 
Q 1584 409 2034 409 
Q 2484 409 2743 651 
Q 3003 894 3003 1313 
Q 3003 1734 2745 1975 
Q 2488 2216 2034 2216 
z
M 1403 2484 
Q 997 2584 770 2862 
Q 544 3141 544 3541 
Q 544 4100 942 4425 
Q 1341 4750 2034 4750 
Q 2731 4750 3128 4425 
Q 3525 4100 3525 3541 
Q 3525 3141 3298 2862 
Q 3072 2584 2669 2484 
Q 3125 2378 3379 2068 
Q 3634 1759 3634 1313 
Q 3634 634 3220 271 
Q 2806 -91 2034 -91 
Q 1263 -91 848 271 
Q 434 634 434 1313 
Q 434 1759 690 2068 
Q 947 2378 1403 2484 
z
M 1172 3481 
Q 1172 3119 1398 2916 
Q 1625 2713 2034 2713 
Q 2441 2713 2670 2916 
Q 2900 3119 2900 3481 
Q 2900 3844 2670 4047 
Q 2441 4250 2034 4250 
Q 1625 4250 1398 4047 
Q 1172 3844 1172 3481 
z
" transform="scale(0.015625)"/>
       </defs>
       <use xlink:href="#DejaVuSans-38"/>
       <use xlink:href="#DejaVuSans-30" x="63.623047"/>
      </g>
     </g>
    </g>
    <g id="ytick_7">
     <g id="line2d_15">
      <g>
       <use xlink:href="#m14c75565be" x="73.77" y="112.430385" style="stroke: #000000; stroke-width: 0.8"/>
      </g>
     </g>
     <g id="text_16">
      <!-- 90 -->
      <g transform="translate(54.045 116.229604) scale(0.1 -0.1)">
       <defs>
        <path id="DejaVuSans-39" d="M 703 97 
L 703 672 
Q 941 559 1184 500 
Q 1428 441 1663 441 
Q 2288 441 2617 861 
Q 2947 1281 2994 2138 
Q 2813 1869 2534 1725 
Q 2256 1581 1919 1581 
Q 1219 1581 811 2004 
Q 403 2428 403 3163 
Q 403 3881 828 4315 
Q 1253 4750 1959 4750 
Q 2769 4750 3195 4129 
Q 3622 3509 3622 2328 
Q 3622 1225 3098 567 
Q 2575 -91 1691 -91 
Q 1453 -91 1209 -44 
Q 966 3 703 97 
z
M 1959 2075 
Q 2384 2075 2632 2365 
Q 2881 2656 2881 3163 
Q 2881 3666 2632 3958 
Q 2384 4250 1959 4250 
Q 1534 4250 1286 3958 
Q 1038 3666 1038 3163 
Q 1038 2656 1286 2365 
Q 1534 2075 1959 2075 
z
" transform="scale(0.015625)"/>
       </defs>
       <use xlink:href="#DejaVuSans-39"/>
       <use xlink:href="#DejaVuSans-30" x="63.623047"/>
      </g>
     </g>
    </g>
    <g id="text_17">
     <!-- Memory Usage (MB) -->
     <g transform="translate(47.965312 331.198281) rotate(-90) scale(0.1 -0.1)">
      <defs>
       <path id="DejaVuSans-4d" d="M 628 4666 
L 1569 4666 
L 2759 1491 
L 3956 4666 
L 4897 4666 
L 4897 0 
L 4281 0 
L 4281 4097 
L 3078 897 
L 2444 897 
L 1241 4097 
L 1241 0 
L 628 0 
L 628 4666 
z
" transform="scale(0.015625)"/>
       <path id="DejaVuSans-6f" d="M 1959 3097 
Q 1497 3097 1228 2736 
Q 959 2375 959 1747 
Q 959 1119 1226 758 
Q 1494 397 1959 397 
Q 2419 397 2687 759 
Q 2956 1122 2956 1747 
Q 2956 2369 2687 2733 
Q 2419 3097 1959 3097 
z
M 1959 3584 
Q 2709 3584 3137 3096 
Q 3566 2609 3566 1747 
Q 3566 888 3137 398 
Q 2709 -91 1959 -91 
Q 1206 -91 779 398 
Q 353 888 353 1747 
Q 353 2609 779 3096 
Q 1206 3584 1959 3584 
z
" transform="scale(0.015625)"/>
       <path id="DejaVuSans-72" d="M 2631 2963 
Q 2534 3019 2420 3045 
Q 2306 3072 2169 3072 
Q 1681 3072 1420 2755 
Q 1159 2438 1159 1844 
L 1159 0 
L 581 0 
L 581 3500 
L 1159 3500 
L 1159 2956 
Q 1341 3275 1631 3429 
Q 1922 3584 2338 3584 
Q 2397 3584 2469 3576 
Q 2541 3569 2628 3553 
L 2631 2963 
z
" transform="scale(0.015625)"/>
       <path id="DejaVuSans-79" d="M 2059 -325 
Q 1816 -950 1584 -1140 
Q 1353 -1331 966 -1331 
L 506 -1331 
L 506 -850 
L 844 -850 
Q 1081 -850 1212 -737 
Q 1344 -625 1503 -206 
L 1606 56 
L 191 3500 
L 800 3500 
L 1894 763 
L 2988 3500 
L 3597 3500 
L 2059 -325 
z
" transform="scale(0.015625)"/>
       <path id="DejaVuSans-55" d="M 556 4666 
L 1191 4666 
L 1191 1831 
Q 1191 1081 1462 751 
Q 1734 422 2344 422 
Q 2950 422 3222 751 
Q 3494 1081 3494 1831 
L 3494 4666 
L 4128 4666 
L 4128 1753 
Q 4128 841 3676 375 
Q 3225 -91 2344 -91 
Q 1459 -91 1007 375 
Q 556 841 556 1753 
L 556 4666 
z
" transform="scale(0.015625)"/>
       <path id="DejaVuSans-61" d="M 2194 1759 
Q 1497 1759 1228 1600 
Q 959 1441 959 1056 
Q 959 750 1161 570 
Q 1363 391 1709 391 
Q 2188 391 2477 730 
Q 2766 1069 2766 1631 
L 2766 1759 
L 2194 1759 
z
M 3341 1997 
L 3341 0 
L 2766 0 
L 2766 531 
Q 2569 213 2275 61 
Q 1981 -91 1556 -91 
Q 1019 -91 701 211 
Q 384 513 384 1019 
Q 384 1609 779 1909 
Q 1175 2209 1959 2209 
L 2766 2209 
L 2766 2266 
Q 2766 2663 2505 2880 
Q 2244 3097 1772 3097 
Q 1472 3097 1187 3025 
Q 903 2953 641 2809 
L 641 3341 
Q 956 3463 1253 3523 
Q 1550 3584 1831 3584 
Q 2591 3584 2966 3190 
Q 3341 2797 3341 1997 
z
" transform="scale(0.015625)"/>
       <path id="DejaVuSans-67" d="M 2906 1791 
Q 2906 2416 2648 2759 
Q 2391 3103 1925 3103 
Q 1463 3103 1205 2759 
Q 947 2416 947 1791 
Q 947 1169 1205 825 
Q 1463 481 1925 481 
Q 2391 481 2648 825 
Q 2906 1169 2906 1791 
z
M 3481 434 
Q 3481 -459 3084 -895 
Q 2688 -1331 1869 -1331 
Q 1566 -1331 1297 -1286 
Q 1028 -1241 775 -1147 
L 775 -588 
Q 1028 -725 1275 -790 
Q 1522 -856 1778 -856 
Q 2344 -856 2625 -561 
Q 2906 -266 2906 331 
L 2906 616 
Q 2728 306 2450 153 
Q 2172 0 1784 0 
Q 1141 0 747 490 
Q 353 981 353 1791 
Q 353 2603 747 3093 
Q 1141 3584 1784 3584 
Q 2172 3584 2450 3431 
Q 2728 3278 2906 2969 
L 2906 3500 
L 3481 3500 
L 3481 434 
z
" transform="scale(0.015625)"/>
       <path id="DejaVuSans-42" d="M 1259 2228 
L 1259 519 
L 2272 519 
Q 2781 519 3026 730 
Q 3272 941 3272 1375 
Q 3272 1813 3026 2020 
Q 2781 2228 2272 2228 
L 1259 2228 
z
M 1259 4147 
L 1259 2741 
L 2194 2741 
Q 2656 2741 2882 2914 
Q 3109 3088 3109 3444 
Q 3109 3797 2882 3972 
Q 2656 4147 2194 4147 
L 1259 4147 
z
M 628 4666 
L 2241 4666 
Q 2963 4666 3353 4366 
Q 3744 4066 3744 3513 
Q 3744 3084 3544 2831 
Q 3344 2578 2956 2516 
Q 3422 2416 3680 2098 
Q 3938 1781 3938 1306 
Q 3938 681 3513 340 
Q 3088 0 2303 0 
L 628 0 
L 628 4666 
z
" transform="scale(0.015625)"/>
      </defs>
      <use xlink:href="#DejaVuSans-4d"/>
      <use xlink:href="#DejaVuSans-65" x="86.279297"/>
      <use xlink:href="#DejaVuSans-6d" x="147.802734"/>
      <use xlink:href="#DejaVuSans-6f" x="245.214844"/>
      <use xlink:href="#DejaVuSans-72" x="306.396484"/>
      <use xlink:href="#DejaVuSans-79" x="347.509766"/>
      <use xlink:href="#DejaVuSans-20" x="406.689453"/>
      <use xlink:href="#DejaVuSans-55" x="438.476562"/>
      <use xlink:href="#DejaVuSans-73" x="511.669922"/>
      <use xlink:href="#DejaVuSans-61" x="563.769531"/>
      <use xlink:href="#DejaVuSans-67" x="625.048828"/>
      <use xlink:href="#DejaVuSans-65" x="688.525391"/>
      <use xlink:href="#DejaVuSans-20" x="750.048828"/>
      <use xlink:href="#DejaVuSans-28" x="781.835938"/>
      <use xlink:href="#DejaVuSans-4d" x="820.849609"/>
      <use xlink:href="#DejaVuSans-42" x="907.128906"/>
      <use xlink:href="#DejaVuSans-29" x="975.732422"/>
     </g>
    </g>
   </g>
   <g id="line2d_16">
    <path d="M 107.871364 108.170663 
L 109.771161 106.59374 
L 119.270148 106.59374 
L 121.169946 106.28121 
L 128.769135 106.28121 
L 132.56873 106.116681 
L 136.368325 106.041554 
L 138.268122 105.817674 
L 151.566704 105.704983 
L 153.466502 105.459316 
L 162.965489 105.377428 
L 168.664881 104.996532 
L 176.264071 104.917648 
L 180.063665 104.737342 
L 183.86326 104.5946 
L 195.262045 104.428569 
L 199.06164 104.078475 
L 208.560627 103.842575 
L 210.460424 103.657762 
L 214.260019 103.483467 
L 218.059614 103.076276 
L 221.859209 102.921514 
L 223.759006 102.886955 
L 227.558601 102.593207 
L 238.957385 102.332515 
L 244.656778 101.985427 
L 252.255967 101.812634 
L 254.155765 101.752532 
L 256.055562 101.425728 
L 259.855157 101.09667 
L 261.754954 101.082396 
L 265.554549 100.729297 
L 282.652726 99.779687 
L 284.552523 99.537777 
L 295.951308 98.997611 
L 299.750903 98.788006 
L 313.049485 98.244084 
L 314.949282 97.987148 
L 320.648674 97.833137 
L 324.448269 97.504079 
L 328.247864 97.355327 
L 333.947256 96.917334 
L 335.847054 96.862491 
L 339.646649 96.625089 
L 349.145636 95.960212 
L 352.94523 95.719804 
L 354.845028 95.411782 
L 358.644623 95.145831 
L 360.54442 94.918195 
L 368.14361 94.433623 
L 375.742799 93.816828 
L 390.941179 93.049026 
L 394.740774 92.816131 
L 428.937127 91.225685 
L 430.836925 90.996546 
L 438.436114 90.679509 
L 444.135506 90.281334 
L 447.935101 90.074733 
L 449.834899 89.877148 
L 453.634494 89.749432 
L 457.434088 89.497004 
L 497.329834 87.767572 
L 503.029226 87.519652 
L 518.227606 86.848013 
L 594.219502 83.767791 
L 605.618287 83.417697 
L 613.217477 83.168274 
L 620.816666 82.810668 
L 622.716464 82.623601 
L 694.908766 79.923523 
L 698.70836 79.796558 
L 702.507955 79.619257 
L 748.103093 77.976222 
L 753.802485 77.775632 
L 759.501878 77.608097 
L 782.299447 76.702061 
L 789.898636 76.478182 
L 789.898636 76.478182 
" clip-path="url(#p14e7146f7a)" style="fill: none; stroke: #000000; stroke-width: 2; stroke-linecap: square"/>
   </g>
   <g id="line2d_17">
    <path d="M 107.871364 138.030788 
L 109.771161 136.365966 
L 115.470553 136.365966 
L 117.370351 136.166127 
L 128.769135 136.142086 
L 130.668933 135.93774 
L 143.967515 135.86712 
L 145.867312 135.505006 
L 155.366299 135.447909 
L 157.266096 135.31268 
L 159.165894 135.293147 
L 161.065691 134.980617 
L 164.865286 134.971602 
L 170.564678 134.59296 
L 172.464476 134.553893 
L 174.364273 134.319496 
L 185.763058 134.182764 
L 189.562653 133.772569 
L 199.06164 133.589258 
L 200.961437 133.332322 
L 212.360222 133.188078 
L 219.959411 132.624622 
L 223.759006 132.505921 
L 225.658803 132.137797 
L 229.458398 132.049147 
L 233.257993 131.711074 
L 252.255967 130.491005 
L 261.754954 130.241582 
L 263.654752 129.798331 
L 265.554549 129.584969 
L 269.354144 129.503831 
L 273.153739 129.341556 
L 275.053536 128.964417 
L 276.953334 128.880274 
L 278.853131 128.624841 
L 284.552523 128.402464 
L 292.151713 127.70979 
L 297.851105 127.573058 
L 303.550498 127.367209 
L 305.450295 127.07872 
L 313.049485 126.878881 
L 316.84908 126.456665 
L 330.147661 125.977353 
L 332.047459 125.72192 
L 337.746851 125.561147 
L 341.546446 125.24411 
L 345.346041 124.686664 
L 347.245838 124.386155 
L 349.145636 124.338073 
L 352.94523 123.774618 
L 356.744825 123.631876 
L 360.54442 123.403489 
L 370.043407 122.876095 
L 379.542394 122.299117 
L 400.440166 121.495254 
L 402.339963 121.242826 
L 419.43814 120.541136 
L 425.137532 120.263165 
L 428.937127 120.157987 
L 455.534291 119.125736 
L 461.233683 118.93341 
L 466.933075 118.640414 
L 476.432063 118.279802 
L 485.93105 117.916186 
L 493.530239 117.5706 
L 495.430037 117.400812 
L 497.329834 117.345218 
L 501.129429 117.107815 
L 503.029226 117.067246 
L 504.929024 116.858392 
L 550.524162 114.849487 
L 556.223554 114.539962 
L 561.922946 114.368671 
L 567.622339 114.042619 
L 579.021123 113.543773 
L 582.820718 113.322898 
L 590.419908 113.061455 
L 598.019097 112.625716 
L 605.618287 112.376293 
L 609.417882 112.131378 
L 615.117274 111.954078 
L 624.616261 111.527354 
L 634.115248 111.201301 
L 637.914843 111.025503 
L 645.514033 110.727999 
L 649.313628 110.556709 
L 656.912817 110.22164 
L 670.211399 109.635647 
L 675.910791 109.429798 
L 685.409778 109.039136 
L 689.209373 108.876861 
L 694.908766 108.654484 
L 715.806537 107.8972 
L 719.606132 107.652284 
L 723.405727 107.52607 
L 727.205322 107.41939 
L 731.004916 107.258617 
L 738.604106 106.860442 
L 744.303498 106.722208 
L 772.80046 105.562241 
L 789.898636 104.902623 
L 789.898636 104.902623 
" clip-path="url(#p14e7146f7a)" style="fill: none; stroke: #a9a9a9; stroke-width: 2; stroke-linecap: square"/>
   </g>
   <g id="line2d_18">
    <path d="M 107.871364 182.390496 
L 109.771161 180.785775 
L 111.670958 180.785775 
L 113.570756 180.588941 
L 124.96954 180.467235 
L 126.869338 180.241853 
L 140.16792 180.042014 
L 142.067717 179.794094 
L 143.967515 179.794094 
L 145.867312 179.604773 
L 149.666907 179.595757 
L 151.566704 179.397421 
L 155.366299 179.193075 
L 161.065691 178.814433 
L 164.865286 178.764849 
L 166.765084 178.524441 
L 183.86326 178.16984 
L 185.763058 177.917412 
L 187.662855 177.912904 
L 189.562653 177.672497 
L 191.46245 177.616902 
L 193.362247 177.438099 
L 202.861234 177.247276 
L 204.761032 176.931741 
L 208.560627 176.874644 
L 210.460424 176.66579 
L 214.260019 176.626724 
L 216.159816 176.015187 
L 223.759006 175.720688 
L 225.658803 175.49831 
L 227.558601 175.441214 
L 231.358196 175.000967 
L 238.957385 174.885271 
L 240.857183 174.626833 
L 250.35617 174.143013 
L 252.255967 173.845508 
L 263.654752 173.309099 
L 265.554549 172.983046 
L 267.454347 172.795228 
L 271.253942 172.685542 
L 273.153739 172.508241 
L 275.053536 172.47819 
L 278.853131 171.851628 
L 284.552523 171.665312 
L 288.352118 171.436925 
L 290.251916 171.343767 
L 292.151713 171.089836 
L 295.951308 170.998181 
L 297.851105 170.763784 
L 301.6507 170.569955 
L 303.550498 170.158257 
L 305.450295 169.87127 
L 314.949282 169.477603 
L 318.748877 169.0629 
L 324.448269 168.879589 
L 328.247864 168.74436 
L 333.947256 168.3552 
L 337.746851 168.162874 
L 360.54442 167.091558 
L 404.239761 164.676964 
L 413.738748 164.071437 
L 421.337937 163.734867 
L 427.03733 163.538033 
L 430.836925 163.417829 
L 434.636519 163.156386 
L 440.335912 162.914476 
L 461.233683 161.991912 
L 466.933075 161.733474 
L 487.830847 160.855986 
L 489.730644 160.662157 
L 503.029226 160.173829 
L 504.929024 159.89135 
L 512.528213 159.608872 
L 527.726593 159.079975 
L 529.62639 158.83506 
L 531.526188 158.756927 
L 533.425985 158.466936 
L 571.421933 157.098115 
L 582.820718 156.791595 
L 590.419908 156.485075 
L 592.319705 156.280729 
L 603.718489 155.860016 
L 611.317679 155.598572 
L 618.916869 155.346145 
L 624.616261 155.185372 
L 634.115248 154.606891 
L 641.714438 154.309387 
L 643.614235 154.24628 
L 647.41383 153.975821 
L 658.812615 153.549098 
L 662.612209 153.22004 
L 664.512007 153.336393 
L 668.311602 153.203888 
L 672.111197 152.876614 
L 681.610184 152.451956 
L 685.409778 152.316258 
L 687.309576 152.030492 
L 702.507955 151.33284 
L 706.30755 151.154037 
L 731.004916 150.050886 
L 732.904714 149.993413 
L 736.704309 149.554388 
L 767.101067 148.222943 
L 774.700257 147.729638 
L 776.600054 147.434293 
L 780.399649 147.319348 
L 782.299447 147.274648 
L 786.099042 147.022407 
L 789.898636 146.829236 
L 789.898636 146.829236 
" clip-path="url(#p14e7146f7a)" style="fill: none; stroke: #a52a2a; stroke-width: 2; stroke-linecap: square"/>
   </g>
   <g id="line2d_19">
    <path d="M 107.871364 286.92873 
L 109.771161 285.468253 
L 111.670958 285.468253 
L 113.570756 285.281938 
L 121.169946 285.263907 
L 123.069743 285.046038 
L 124.96954 284.679416 
L 130.668933 284.641852 
L 132.56873 284.464552 
L 136.368325 284.455537 
L 140.16792 284.033321 
L 142.067717 284.033321 
L 147.767109 283.388728 
L 151.566704 283.381215 
L 153.466502 283.109254 
L 159.165894 283.058167 
L 161.065691 282.805739 
L 162.965489 282.724602 
L 166.765084 282.266325 
L 168.664881 282.164152 
L 170.564678 281.935765 
L 178.163868 281.753956 
L 181.963463 281.38433 
L 183.86326 281.328735 
L 185.763058 281.094338 
L 189.562653 280.953098 
L 191.46245 280.633056 
L 193.362247 280.530883 
L 195.262045 280.266434 
L 200.961437 280.111672 
L 202.861234 279.507648 
L 204.761032 279.444541 
L 206.660829 279.246205 
L 208.560627 279.193615 
L 210.460424 278.864558 
L 214.260019 278.726323 
L 216.159816 278.654201 
L 218.059614 278.326646 
L 227.558601 277.880389 
L 229.458398 277.665525 
L 233.257993 277.019429 
L 240.857183 276.32375 
L 242.75698 276.045779 
L 248.456372 275.827909 
L 250.35617 275.592009 
L 282.652726 273.498961 
L 284.552523 273.190939 
L 295.951308 272.511787 
L 299.750903 272.415624 
L 303.550498 271.889732 
L 318.748877 271.200063 
L 322.548472 270.998722 
L 349.145636 269.903365 
L 371.943205 268.947745 
L 377.642597 268.618687 
L 392.840976 267.971089 
L 409.939153 267.12215 
L 411.83895 267.074068 
L 419.43814 266.489577 
L 423.237735 266.286733 
L 478.33186 263.460441 
L 484.031252 263.150917 
L 489.730644 262.841392 
L 504.929024 262.034524 
L 508.728619 261.867741 
L 527.726593 261.113462 
L 531.526188 260.954192 
L 544.82477 260.342656 
L 554.323757 259.948988 
L 569.522136 259.247298 
L 577.121326 258.798037 
L 588.52011 258.306704 
L 592.319705 258.088834 
L 596.1193 257.961118 
L 601.818692 257.641075 
L 609.417882 257.23689 
L 624.616261 256.329351 
L 626.516058 256.305311 
L 634.115248 255.857552 
L 641.714438 255.513468 
L 675.910791 253.642797 
L 685.409778 253.193535 
L 691.109171 252.858467 
L 696.808563 252.562465 
L 706.30755 252.030563 
L 710.107145 251.889324 
L 713.90674 251.560266 
L 719.606132 251.310843 
L 723.405727 251.06142 
L 725.305524 250.98479 
L 727.205322 250.682778 
L 731.004916 250.407812 
L 734.804511 250.269578 
L 738.604106 249.979586 
L 742.403701 249.779747 
L 746.203296 249.459705 
L 751.902688 249.187744 
L 763.301473 248.621283 
L 767.101067 248.428957 
L 770.900662 248.160001 
L 780.399649 247.701724 
L 782.299447 248.357492 
L 787.998839 248.118024 
L 789.898636 248.623888 
L 789.898636 248.623888 
" clip-path="url(#p14e7146f7a)" style="fill: none; stroke: #deb887; stroke-width: 2; stroke-linecap: square"/>
   </g>
   <g id="line2d_20">
    <path d="M 107.871364 262.359074 
L 109.771161 260.778394 
L 111.670958 260.598089 
L 121.169946 260.565033 
L 123.069743 260.359184 
L 130.668933 260.323122 
L 132.56873 260.102248 
L 136.368325 260.052664 
L 138.268122 259.731119 
L 140.16792 259.708581 
L 142.067717 259.489209 
L 166.765084 258.225566 
L 170.564678 257.761279 
L 172.464476 257.756771 
L 180.063665 257.295489 
L 181.963463 257.247408 
L 183.86326 257.029539 
L 185.763058 256.960421 
L 187.662855 256.673435 
L 193.362247 256.451058 
L 195.262045 256.383443 
L 197.161842 256.120497 
L 204.761032 255.881592 
L 206.660829 255.481915 
L 214.260019 255.203943 
L 216.159816 254.94851 
L 218.059614 254.891414 
L 219.959411 254.641991 
L 221.859209 254.559351 
L 223.759006 254.336974 
L 225.658803 253.83963 
L 229.458398 253.647304 
L 231.358196 253.149961 
L 235.157791 252.920071 
L 238.957385 252.421226 
L 242.75698 252.281489 
L 244.656778 251.931395 
L 252.255967 251.528712 
L 254.155765 251.244731 
L 259.855157 250.945724 
L 261.754954 250.66625 
L 282.652726 249.250851 
L 288.352118 249.054017 
L 290.251916 248.806096 
L 297.851105 248.501079 
L 309.24989 247.906071 
L 311.149687 247.676181 
L 313.049485 247.647632 
L 314.949282 247.441783 
L 316.84908 247.368159 
L 318.748877 247.141274 
L 328.247864 246.713048 
L 330.147661 246.489168 
L 333.947256 246.393005 
L 337.746851 246.083481 
L 354.845028 245.384796 
L 358.644623 245.130866 
L 362.444218 245.028692 
L 368.14361 244.701137 
L 371.943205 244.592954 
L 394.740774 243.457028 
L 400.440166 243.249676 
L 413.738748 242.430788 
L 417.538343 242.310584 
L 421.337937 242.115253 
L 427.03733 241.829769 
L 442.235709 241.031916 
L 465.033278 239.974123 
L 466.933075 239.808843 
L 474.532265 239.535379 
L 495.430037 238.525667 
L 503.029226 238.082416 
L 512.528213 237.640667 
L 514.428011 237.198918 
L 516.327808 236.972033 
L 527.726593 236.431116 
L 531.526188 236.198221 
L 554.323757 235.257626 
L 569.522136 234.42822 
L 575.221528 234.057091 
L 580.92092 233.854247 
L 618.916869 231.807778 
L 630.315653 231.082047 
L 647.41383 230.263159 
L 655.01302 229.937106 
L 656.912817 230.445249 
L 660.712412 230.229727 
L 664.512007 230.082853 
L 666.411804 230.65332 
L 674.010994 230.319554 
L 675.910791 224.554552 
L 681.610184 224.302768 
L 683.509981 224.353293 
L 689.209373 224.013371 
L 691.109171 224.314323 
L 698.70836 223.98226 
L 700.608158 223.787589 
L 704.407753 223.625041 
L 706.30755 223.392829 
L 710.107145 223.301105 
L 713.90674 223.076324 
L 715.806537 222.828554 
L 717.706335 224.974192 
L 719.606132 224.741464 
L 723.405727 224.596719 
L 725.305524 224.996542 
L 731.004916 224.804967 
L 732.904714 224.600621 
L 734.804511 224.766196 
L 736.704309 224.496167 
L 738.604106 224.397643 
L 740.503904 223.868532 
L 742.403701 223.914145 
L 748.103093 223.697027 
L 750.002891 224.274305 
L 757.60208 223.824743 
L 759.501878 224.674058 
L 761.401675 224.520798 
L 765.20127 224.412239 
L 767.101067 225.885236 
L 772.80046 225.68089 
L 774.700257 227.835042 
L 776.600054 227.579609 
L 778.499852 227.528522 
L 780.399649 227.349719 
L 782.299447 227.349719 
L 784.199244 231.513278 
L 786.099042 231.334475 
L 789.898636 231.308932 
L 789.898636 231.308932 
" clip-path="url(#p14e7146f7a)" style="fill: none; stroke: #ff00ff; stroke-width: 2; stroke-linecap: square"/>
   </g>
   <g id="line2d_21">
    <path d="M 107.871364 322.163467 
L 109.771161 320.573771 
L 111.670958 320.391963 
L 117.370351 320.37243 
L 119.270148 320.180104 
L 121.169946 320.180104 
L 124.96954 319.597116 
L 128.769135 319.431835 
L 132.56873 319.017132 
L 136.368325 318.988584 
L 138.268122 318.661029 
L 143.967515 318.566368 
L 145.867312 318.343991 
L 151.566704 318.223787 
L 153.466502 317.825612 
L 166.765084 317.223091 
L 168.664881 316.836936 
L 174.364273 316.628082 
L 176.264071 316.410212 
L 180.063665 316.315552 
L 181.963463 316.069134 
L 185.763058 315.92489 
L 189.562653 315.224703 
L 191.46245 314.98129 
L 193.362247 314.897147 
L 197.161842 314.440373 
L 202.861234 314.233021 
L 204.761032 313.96106 
L 208.560627 313.797283 
L 210.460424 313.532834 
L 212.360222 313.097095 
L 214.260019 312.937825 
L 216.159816 312.907774 
L 218.059614 312.619285 
L 223.759006 312.182044 
L 225.658803 311.90858 
L 237.057588 311.248962 
L 242.75698 310.78167 
L 244.656778 310.427069 
L 259.855157 309.285133 
L 261.754954 308.877942 
L 265.554549 308.670591 
L 267.454347 308.373086 
L 288.352118 307.073383 
L 295.951308 306.637644 
L 297.851105 306.421277 
L 301.6507 306.255997 
L 305.450295 306.02761 
L 335.847054 304.266624 
L 339.646649 303.919536 
L 343.446243 303.689646 
L 345.346041 303.441726 
L 351.045433 303.147226 
L 373.843002 301.536496 
L 379.542394 301.260027 
L 390.941179 300.631962 
L 396.640571 300.33596 
L 400.440166 300.152649 
L 444.135506 297.574278 
L 453.634494 297.128021 
L 455.534291 296.968751 
L 461.233683 296.746374 
L 465.033278 296.563064 
L 480.231657 295.553352 
L 484.031252 295.285898 
L 522.027201 293.207875 
L 523.926998 293.757526 
L 527.726593 293.567548 
L 529.62639 294.194849 
L 533.425985 293.999017 
L 535.325782 288.219418 
L 537.22558 288.109947 
L 539.125377 288.280329 
L 542.924972 288.178156 
L 544.82477 288.538709 
L 548.624364 288.334363 
L 550.524162 288.293919 
L 552.423959 288.02436 
L 556.223554 287.845557 
L 558.123351 287.953767 
L 561.922946 287.759638 
L 563.822744 289.050994 
L 567.622339 288.647978 
L 569.522136 288.602567 
L 571.421933 288.947402 
L 577.121326 288.676004 
L 579.021123 288.803265 
L 586.620313 288.440793 
L 588.52011 288.597459 
L 594.219502 288.352243 
L 596.1193 287.810725 
L 599.918895 287.753252 
L 601.818692 287.299859 
L 603.718489 287.121056 
L 605.618287 287.104027 
L 607.518084 286.916709 
L 609.417882 287.555292 
L 611.317679 287.555292 
L 613.217477 287.427575 
L 615.117274 287.759638 
L 617.017071 287.606378 
L 618.916869 287.606378 
L 618.916869 287.606378 
" clip-path="url(#p14e7146f7a)" style="fill: none; stroke: #8a2be2; stroke-width: 2; stroke-linecap: square"/>
   </g>
   <g id="line2d_22">
    <path d="M 107.871364 396.172942 
L 109.771161 395.496796 
L 111.670958 395.496796 
L 113.570756 395.224835 
L 115.470553 395.224835 
L 119.270148 394.880751 
L 121.169946 394.445013 
L 123.069743 394.426982 
L 126.869338 393.845496 
L 128.769135 393.513433 
L 130.668933 393.430793 
L 134.468527 392.952983 
L 136.368325 392.912414 
L 138.268122 392.574341 
L 143.967515 391.862134 
L 145.867312 391.578152 
L 147.767109 390.694654 
L 149.666907 390.55642 
L 151.566704 390.270936 
L 153.466502 390.156742 
L 164.865286 388.541504 
L 168.664881 387.558838 
L 170.564678 387.210247 
L 176.264071 386.760985 
L 178.163868 386.678345 
L 180.063665 386.401876 
L 187.662855 386.035255 
L 197.161842 385.570968 
L 204.761032 385.153259 
L 208.560627 384.719023 
L 223.759006 383.766408 
L 225.658803 383.685271 
L 227.558601 383.441858 
L 231.358196 383.210466 
L 233.257993 382.4051 
L 250.35617 381.512587 
L 252.255967 381.293215 
L 290.251916 379.578245 
L 294.051511 379.365916 
L 347.245838 376.798814 
L 356.744825 376.326263 
L 375.742799 375.344442 
L 379.542394 375.211936 
L 381.442192 375.502598 
L 383.341989 375.458323 
L 385.241787 375.614015 
L 387.141584 377.935368 
L 389.041381 378.551191 
L 390.941179 379.453141 
L 392.840976 379.376511 
L 394.740774 380.262167 
L 396.640571 381.571687 
L 398.540368 383.186237 
L 400.440166 383.151115 
L 402.339963 372.348121 
L 404.239761 373.125367 
L 406.139558 373.09131 
L 408.039356 373.447213 
L 421.337937 372.933793 
L 423.237735 370.341147 
L 423.237735 370.341147 
" clip-path="url(#p14e7146f7a)" style="fill: none; stroke: #800080; stroke-width: 2; stroke-linecap: square"/>
   </g>
   <g id="line2d_23">
    <path d="M 107.871364 387.253821 
L 109.771161 386.906732 
L 113.570756 386.535603 
L 115.470553 386.446953 
L 117.370351 385.592003 
L 119.270148 385.303514 
L 121.169946 386.014219 
L 128.769135 385.329057 
L 130.668933 385.321545 
L 132.56873 385.105178 
L 134.468527 385.025543 
L 136.368325 384.257741 
L 138.268122 384.197639 
L 142.067717 383.589108 
L 147.767109 382.642503 
L 149.666907 382.583903 
L 155.366299 381.734964 
L 157.266096 381.703411 
L 159.165894 381.429947 
L 161.065691 381.333784 
L 166.765084 380.029573 
L 168.664881 379.900354 
L 172.464476 379.141567 
L 174.364273 378.508995 
L 178.163868 378.212993 
L 191.46245 377.343018 
L 195.262045 376.839665 
L 197.161842 376.738994 
L 199.06164 376.378382 
L 200.961437 376.276209 
L 202.861234 375.935131 
L 212.360222 375.289036 
L 223.759006 374.348441 
L 254.155765 372.207311 
L 259.855157 371.851207 
L 261.754954 371.64085 
L 269.354144 371.218635 
L 278.853131 370.498914 
L 290.251916 369.855824 
L 294.051511 369.534279 
L 299.750903 369.247292 
L 307.350092 368.810051 
L 322.548472 367.961112 
L 324.448269 368.478082 
L 326.348067 368.36633 
L 330.147661 369.200821 
L 332.047459 369.12784 
L 333.947256 369.492323 
L 335.847054 370.102743 
L 337.746851 369.994184 
L 339.646649 370.601224 
L 343.446243 372.421507 
L 345.346041 372.336363 
L 347.245838 362.368443 
L 349.145636 362.400828 
L 351.045433 362.284058 
L 352.94523 362.550439 
L 354.845028 362.452523 
L 356.744825 362.570873 
L 358.644623 362.397179 
L 360.54442 362.569596 
L 362.444218 362.601525 
L 364.344015 364.210753 
L 366.243812 364.210753 
L 368.14361 362.218376 
L 370.043407 362.116202 
L 370.043407 362.116202 
" clip-path="url(#p14e7146f7a)" style="fill: none; stroke: #90ee90; stroke-width: 2; stroke-linecap: square"/>
   </g>
   <g id="line2d_24">
    <path d="M 107.871364 426.614553 
L 109.771161 425.483135 
L 111.670958 425.483135 
L 113.570756 425.302829 
L 115.470553 424.670257 
L 119.270148 424.335188 
L 121.169946 423.938516 
L 124.96954 423.819815 
L 126.869338 423.235324 
L 128.769135 423.035485 
L 130.668933 422.32478 
L 132.56873 422.261673 
L 136.368325 421.519415 
L 138.268122 421.235433 
L 140.16792 420.760628 
L 143.967515 420.415042 
L 145.867312 419.898166 
L 147.767109 419.654753 
L 151.566704 418.167231 
L 153.466502 417.787087 
L 157.266096 417.348343 
L 162.965489 416.917112 
L 166.765084 416.295057 
L 168.664881 416.186874 
L 174.364273 415.330422 
L 185.763058 414.412365 
L 189.562653 413.982637 
L 197.161842 413.274937 
L 199.06164 412.962407 
L 204.761032 412.529673 
L 208.560627 412.298281 
L 219.959411 411.623637 
L 223.759006 411.208934 
L 227.558601 410.944486 
L 233.257993 410.699571 
L 238.957385 411.531553 
L 242.75698 412.491859 
L 244.656778 413.265512 
L 246.556575 413.826071 
L 248.456372 414.90854 
L 250.35617 404.952327 
L 252.255967 404.623913 
L 254.155765 404.096626 
L 256.055562 403.807987 
L 257.95536 402.870547 
L 259.855157 406.229492 
L 263.654752 405.616453 
L 263.654752 405.616453 
" clip-path="url(#p14e7146f7a)" style="fill: none; stroke: #8fbc8f; stroke-width: 2; stroke-linecap: square"/>
   </g>
   <g id="line2d_25">
    <path d="M 107.871364 455.174974 
L 109.771161 454.555925 
L 121.169946 452.465881 
L 124.96954 450.987375 
L 126.869338 450.475006 
L 128.769135 450.139938 
L 132.56873 448.780132 
L 138.268122 447.447373 
L 142.067717 446.780242 
L 143.967515 446.26036 
L 145.867312 446.078552 
L 147.767109 445.746489 
L 161.065691 444.388186 
L 162.965489 444.09519 
L 170.564678 443.401013 
L 172.464476 443.028381 
L 195.262045 440.86922 
L 206.660829 440.209602 
L 214.260019 440.080383 
L 214.260019 440.080383 
" clip-path="url(#p14e7146f7a)" style="fill: none; stroke: #008000; stroke-width: 2; stroke-linecap: square"/>
   </g>
   <g id="line2d_26">
    <path d="M 107.871364 464.107619 
L 109.771161 462.941642 
L 111.670958 462.309069 
L 113.570756 461.969494 
L 117.370351 460.74041 
L 119.270148 459.86743 
L 121.169946 459.493295 
L 128.769135 456.763167 
L 130.668933 456.573846 
L 132.56873 456.091528 
L 134.468527 455.413879 
L 142.067717 454.706179 
L 147.767109 453.664914 
L 153.466502 453.127002 
L 159.165894 452.611628 
L 161.065691 452.44184 
L 162.965489 452.112783 
L 168.664881 451.615439 
L 174.364273 451.388555 
L 176.264071 451.375032 
L 178.163868 451.157162 
L 180.063665 451.136127 
L 180.063665 451.136127 
" clip-path="url(#p14e7146f7a)" style="fill: none; stroke: #00ffff; stroke-width: 2; stroke-linecap: square"/>
   </g>
   <g id="line2d_27">
    <path d="M 107.871364 474.267844 
L 109.771161 473.623251 
L 111.670958 473.196528 
L 113.570756 472.122207 
L 115.470553 471.400984 
L 121.169946 468.876704 
L 123.069743 467.755804 
L 126.869338 466.711533 
L 130.668933 466.349419 
L 132.56873 465.823528 
L 140.16792 465.333697 
L 143.967515 465.213493 
L 143.967515 465.213493 
" clip-path="url(#p14e7146f7a)" style="fill: none; stroke: #0000ff; stroke-width: 2; stroke-linecap: square"/>
   </g>
   <g id="line2d_28">
    <path d="M 107.871364 478.532825 
L 109.771161 477.024267 
L 113.570756 475.393252 
L 115.470553 474.716355 
L 117.370351 473.431677 
L 121.169946 471.470852 
L 123.069743 471.040372 
L 124.96954 470.804472 
L 128.769135 470.757142 
L 128.769135 470.757142 
" clip-path="url(#p14e7146f7a)" style="fill: none; stroke: #ff8c00; stroke-width: 2; stroke-linecap: square"/>
   </g>
   <g id="line2d_29">
    <path d="M 107.871364 484.441818 
L 109.771161 482.450717 
L 111.670958 481.351078 
L 113.570756 479.783996 
L 115.470553 477.740532 
L 115.470553 477.740532 
" clip-path="url(#p14e7146f7a)" style="fill: none; stroke: #ff0000; stroke-width: 2; stroke-linecap: square"/>
   </g>
   <g id="patch_3">
    <path d="M 73.77 504.84 
L 73.77 56.08 
" style="fill: none; stroke: #000000; stroke-width: 0.8; stroke-linejoin: miter; stroke-linecap: square"/>
   </g>
   <g id="patch_4">
    <path d="M 824 504.84 
L 824 56.08 
" style="fill: none; stroke: #000000; stroke-width: 0.8; stroke-linejoin: miter; stroke-linecap: square"/>
   </g>
   <g id="patch_5">
    <path d="M 73.77 504.84 
L 824 504.84 
" style="fill: none; stroke: #000000; stroke-width: 0.8; stroke-linejoin: miter; stroke-linecap: square"/>
   </g>
   <g id="patch_6">
    <path d="M 73.77 56.08 
L 824 56.08 
" style="fill: none; stroke: #000000; stroke-width: 0.8; stroke-linejoin: miter; stroke-linecap: square"/>
   </g>
   <g id="text_18">
    <!-- Time vs Memory usages -->
    <g transform="translate(376.173437 50.08) scale(0.12 -0.12)">
     <defs>
      <path id="DejaVuSans-76" d="M 191 3500 
L 800 3500 
L 1894 563 
L 2988 3500 
L 3597 3500 
L 2284 0 
L 1503 0 
L 191 3500 
z
" transform="scale(0.015625)"/>
      <path id="DejaVuSans-75" d="M 544 1381 
L 544 3500 
L 1119 3500 
L 1119 1403 
Q 1119 906 1312 657 
Q 1506 409 1894 409 
Q 2359 409 2629 706 
Q 2900 1003 2900 1516 
L 2900 3500 
L 3475 3500 
L 3475 0 
L 2900 0 
L 2900 538 
Q 2691 219 2414 64 
Q 2138 -91 1772 -91 
Q 1169 -91 856 284 
Q 544 659 544 1381 
z
M 1991 3584 
L 1991 3584 
z
" transform="scale(0.015625)"/>
     </defs>
     <use xlink:href="#DejaVuSans-54"/>
     <use xlink:href="#DejaVuSans-69" x="57.958984"/>
     <use xlink:href="#DejaVuSans-6d" x="85.742188"/>
     <use xlink:href="#DejaVuSans-65" x="183.154297"/>
     <use xlink:href="#DejaVuSans-20" x="244.677734"/>
     <use xlink:href="#DejaVuSans-76" x="276.464844"/>
     <use xlink:href="#DejaVuSans-73" x="335.644531"/>
     <use xlink:href="#DejaVuSans-20" x="387.744141"/>
     <use xlink:href="#DejaVuSans-4d" x="419.53125"/>
     <use xlink:href="#DejaVuSans-65" x="505.810547"/>
     <use xlink:href="#DejaVuSans-6d" x="567.333984"/>
     <use xlink:href="#DejaVuSans-6f" x="664.746094"/>
     <use xlink:href="#DejaVuSans-72" x="725.927734"/>
     <use xlink:href="#DejaVuSans-79" x="767.041016"/>
     <use xlink:href="#DejaVuSans-20" x="826.220703"/>
     <use xlink:href="#DejaVuSans-75" x="858.007812"/>
     <use xlink:href="#DejaVuSans-73" x="921.386719"/>
     <use xlink:href="#DejaVuSans-61" x="973.486328"/>
     <use xlink:href="#DejaVuSans-67" x="1034.765625"/>
     <use xlink:href="#DejaVuSans-65" x="1098.242188"/>
     <use xlink:href="#DejaVuSans-73" x="1159.765625"/>
    </g>
   </g>
   <g id="legend_1">
    <g id="patch_7">
     <path d="M 740.90625 499.84 
L 817 499.84 
Q 819 499.84 819 497.84 
L 819 293.34625 
Q 819 291.34625 817 291.34625 
L 740.90625 291.34625 
Q 738.90625 291.34625 738.90625 293.34625 
L 738.90625 497.84 
Q 738.90625 499.84 740.90625 499.84 
z
" style="fill: #ffffff; opacity: 0.8; stroke: #cccccc; stroke-linejoin: miter"/>
    </g>
    <g id="line2d_30">
     <path d="M 742.90625 299.444688 
L 752.90625 299.444688 
L 762.90625 299.444688 
" style="fill: none; stroke: #000000; stroke-width: 2; stroke-linecap: square"/>
    </g>
    <g id="text_19">
     <!-- 140x140 -->
     <g transform="translate(770.90625 302.944688) scale(0.1 -0.1)">
      <defs>
       <path id="DejaVuSans-78" d="M 3513 3500 
L 2247 1797 
L 3578 0 
L 2900 0 
L 1881 1375 
L 863 0 
L 184 0 
L 1544 1831 
L 300 3500 
L 978 3500 
L 1906 2253 
L 2834 3500 
L 3513 3500 
z
" transform="scale(0.015625)"/>
      </defs>
      <use xlink:href="#DejaVuSans-31"/>
      <use xlink:href="#DejaVuSans-34" x="63.623047"/>
      <use xlink:href="#DejaVuSans-30" x="127.246094"/>
      <use xlink:href="#DejaVuSans-78" x="190.869141"/>
      <use xlink:href="#DejaVuSans-31" x="250.048828"/>
      <use xlink:href="#DejaVuSans-34" x="313.671875"/>
      <use xlink:href="#DejaVuSans-30" x="377.294922"/>
     </g>
    </g>
    <g id="line2d_31">
     <path d="M 742.90625 314.122813 
L 752.90625 314.122813 
L 762.90625 314.122813 
" style="fill: none; stroke: #a9a9a9; stroke-width: 2; stroke-linecap: square"/>
    </g>
    <g id="text_20">
     <!-- 130x130 -->
     <g transform="translate(770.90625 317.622813) scale(0.1 -0.1)">
      <use xlink:href="#DejaVuSans-31"/>
      <use xlink:href="#DejaVuSans-33" x="63.623047"/>
      <use xlink:href="#DejaVuSans-30" x="127.246094"/>
      <use xlink:href="#DejaVuSans-78" x="190.869141"/>
      <use xlink:href="#DejaVuSans-31" x="250.048828"/>
      <use xlink:href="#DejaVuSans-33" x="313.671875"/>
      <use xlink:href="#DejaVuSans-30" x="377.294922"/>
     </g>
    </g>
    <g id="line2d_32">
     <path d="M 742.90625 328.800938 
L 752.90625 328.800938 
L 762.90625 328.800938 
" style="fill: none; stroke: #a52a2a; stroke-width: 2; stroke-linecap: square"/>
    </g>
    <g id="text_21">
     <!-- 120x120 -->
     <g transform="translate(770.90625 332.300938) scale(0.1 -0.1)">
      <use xlink:href="#DejaVuSans-31"/>
      <use xlink:href="#DejaVuSans-32" x="63.623047"/>
      <use xlink:href="#DejaVuSans-30" x="127.246094"/>
      <use xlink:href="#DejaVuSans-78" x="190.869141"/>
      <use xlink:href="#DejaVuSans-31" x="250.048828"/>
      <use xlink:href="#DejaVuSans-32" x="313.671875"/>
      <use xlink:href="#DejaVuSans-30" x="377.294922"/>
     </g>
    </g>
    <g id="line2d_33">
     <path d="M 742.90625 343.479063 
L 752.90625 343.479063 
L 762.90625 343.479063 
" style="fill: none; stroke: #deb887; stroke-width: 2; stroke-linecap: square"/>
    </g>
    <g id="text_22">
     <!-- 110x110 -->
     <g transform="translate(770.90625 346.979063) scale(0.1 -0.1)">
      <use xlink:href="#DejaVuSans-31"/>
      <use xlink:href="#DejaVuSans-31" x="63.623047"/>
      <use xlink:href="#DejaVuSans-30" x="127.246094"/>
      <use xlink:href="#DejaVuSans-78" x="190.869141"/>
      <use xlink:href="#DejaVuSans-31" x="250.048828"/>
      <use xlink:href="#DejaVuSans-31" x="313.671875"/>
      <use xlink:href="#DejaVuSans-30" x="377.294922"/>
     </g>
    </g>
    <g id="line2d_34">
     <path d="M 742.90625 358.157188 
L 752.90625 358.157188 
L 762.90625 358.157188 
" style="fill: none; stroke: #ff00ff; stroke-width: 2; stroke-linecap: square"/>
    </g>
    <g id="text_23">
     <!-- 100x100 -->
     <g transform="translate(770.90625 361.657188) scale(0.1 -0.1)">
      <use xlink:href="#DejaVuSans-31"/>
      <use xlink:href="#DejaVuSans-30" x="63.623047"/>
      <use xlink:href="#DejaVuSans-30" x="127.246094"/>
      <use xlink:href="#DejaVuSans-78" x="190.869141"/>
      <use xlink:href="#DejaVuSans-31" x="250.048828"/>
      <use xlink:href="#DejaVuSans-30" x="313.671875"/>
      <use xlink:href="#DejaVuSans-30" x="377.294922"/>
     </g>
    </g>
    <g id="line2d_35">
     <path d="M 742.90625 372.835313 
L 752.90625 372.835313 
L 762.90625 372.835313 
" style="fill: none; stroke: #8a2be2; stroke-width: 2; stroke-linecap: square"/>
    </g>
    <g id="text_24">
     <!-- 90x90 -->
     <g transform="translate(770.90625 376.335313) scale(0.1 -0.1)">
      <use xlink:href="#DejaVuSans-39"/>
      <use xlink:href="#DejaVuSans-30" x="63.623047"/>
      <use xlink:href="#DejaVuSans-78" x="127.246094"/>
      <use xlink:href="#DejaVuSans-39" x="186.425781"/>
      <use xlink:href="#DejaVuSans-30" x="250.048828"/>
     </g>
    </g>
    <g id="line2d_36">
     <path d="M 742.90625 387.513438 
L 752.90625 387.513438 
L 762.90625 387.513438 
" style="fill: none; stroke: #800080; stroke-width: 2; stroke-linecap: square"/>
    </g>
    <g id="text_25">
     <!-- 80x80 -->
     <g transform="translate(770.90625 391.013438) scale(0.1 -0.1)">
      <use xlink:href="#DejaVuSans-38"/>
      <use xlink:href="#DejaVuSans-30" x="63.623047"/>
      <use xlink:href="#DejaVuSans-78" x="127.246094"/>
      <use xlink:href="#DejaVuSans-38" x="186.425781"/>
      <use xlink:href="#DejaVuSans-30" x="250.048828"/>
     </g>
    </g>
    <g id="line2d_37">
     <path d="M 742.90625 402.191563 
L 752.90625 402.191563 
L 762.90625 402.191563 
" style="fill: none; stroke: #90ee90; stroke-width: 2; stroke-linecap: square"/>
    </g>
    <g id="text_26">
     <!-- 70x70 -->
     <g transform="translate(770.90625 405.691563) scale(0.1 -0.1)">
      <use xlink:href="#DejaVuSans-37"/>
      <use xlink:href="#DejaVuSans-30" x="63.623047"/>
      <use xlink:href="#DejaVuSans-78" x="127.246094"/>
      <use xlink:href="#DejaVuSans-37" x="186.425781"/>
      <use xlink:href="#DejaVuSans-30" x="250.048828"/>
     </g>
    </g>
    <g id="line2d_38">
     <path d="M 742.90625 416.869688 
L 752.90625 416.869688 
L 762.90625 416.869688 
" style="fill: none; stroke: #8fbc8f; stroke-width: 2; stroke-linecap: square"/>
    </g>
    <g id="text_27">
     <!-- 60x60 -->
     <g transform="translate(770.90625 420.369688) scale(0.1 -0.1)">
      <use xlink:href="#DejaVuSans-36"/>
      <use xlink:href="#DejaVuSans-30" x="63.623047"/>
      <use xlink:href="#DejaVuSans-78" x="127.246094"/>
      <use xlink:href="#DejaVuSans-36" x="186.425781"/>
      <use xlink:href="#DejaVuSans-30" x="250.048828"/>
     </g>
    </g>
    <g id="line2d_39">
     <path d="M 742.90625 431.547813 
L 752.90625 431.547813 
L 762.90625 431.547813 
" style="fill: none; stroke: #008000; stroke-width: 2; stroke-linecap: square"/>
    </g>
    <g id="text_28">
     <!-- 50x50 -->
     <g transform="translate(770.90625 435.047813) scale(0.1 -0.1)">
      <use xlink:href="#DejaVuSans-35"/>
      <use xlink:href="#DejaVuSans-30" x="63.623047"/>
      <use xlink:href="#DejaVuSans-78" x="127.246094"/>
      <use xlink:href="#DejaVuSans-35" x="186.425781"/>
      <use xlink:href="#DejaVuSans-30" x="250.048828"/>
     </g>
    </g>
    <g id="line2d_40">
     <path d="M 742.90625 446.225937 
L 752.90625 446.225937 
L 762.90625 446.225937 
" style="fill: none; stroke: #00ffff; stroke-width: 2; stroke-linecap: square"/>
    </g>
    <g id="text_29">
     <!-- 40x40 -->
     <g transform="translate(770.90625 449.725937) scale(0.1 -0.1)">
      <use xlink:href="#DejaVuSans-34"/>
      <use xlink:href="#DejaVuSans-30" x="63.623047"/>
      <use xlink:href="#DejaVuSans-78" x="127.246094"/>
      <use xlink:href="#DejaVuSans-34" x="186.425781"/>
      <use xlink:href="#DejaVuSans-30" x="250.048828"/>
     </g>
    </g>
    <g id="line2d_41">
     <path d="M 742.90625 460.904063 
L 752.90625 460.904063 
L 762.90625 460.904063 
" style="fill: none; stroke: #0000ff; stroke-width: 2; stroke-linecap: square"/>
    </g>
    <g id="text_30">
     <!-- 30x30 -->
     <g transform="translate(770.90625 464.404063) scale(0.1 -0.1)">
      <use xlink:href="#DejaVuSans-33"/>
      <use xlink:href="#DejaVuSans-30" x="63.623047"/>
      <use xlink:href="#DejaVuSans-78" x="127.246094"/>
      <use xlink:href="#DejaVuSans-33" x="186.425781"/>
      <use xlink:href="#DejaVuSans-30" x="250.048828"/>
     </g>
    </g>
    <g id="line2d_42">
     <path d="M 742.90625 475.582188 
L 752.90625 475.582188 
L 762.90625 475.582188 
" style="fill: none; stroke: #ff8c00; stroke-width: 2; stroke-linecap: square"/>
    </g>
    <g id="text_31">
     <!-- 20x20 -->
     <g transform="translate(770.90625 479.082188) scale(0.1 -0.1)">
      <use xlink:href="#DejaVuSans-32"/>
      <use xlink:href="#DejaVuSans-30" x="63.623047"/>
      <use xlink:href="#DejaVuSans-78" x="127.246094"/>
      <use xlink:href="#DejaVuSans-32" x="186.425781"/>
      <use xlink:href="#DejaVuSans-30" x="250.048828"/>
     </g>
    </g>
    <g id="line2d_43">
     <path d="M 742.90625 490.260312 
L 752.90625 490.260312 
L 762.90625 490.260312 
" style="fill: none; stroke: #ff0000; stroke-width: 2; stroke-linecap: square"/>
    </g>
    <g id="text_32">
     <!-- 10x10 -->
     <g transform="translate(770.90625 493.760312) scale(0.1 -0.1)">
      <use xlink:href="#DejaVuSans-31"/>
      <use xlink:href="#DejaVuSans-30" x="63.623047"/>
      <use xlink:href="#DejaVuSans-78" x="127.246094"/>
      <use xlink:href="#DejaVuSans-31" x="186.425781"/>
      <use xlink:href="#DejaVuSans-30" x="250.048828"/>
     </g>
    </g>
   </g>
  </g>
 </g>
 <defs>
  <clipPath id="p14e7146f7a">
   <rect x="73.77" y="56.08" width="750.23" height="448.76"/>
  </clipPath>
 </defs>
</svg>
